# xmcd CD database file
# Copyright (C) 1996 Ti Kan
#
# Track frame offsets:
#	150
#	15102
#	21292
#	32280
#	34631
#	46800
#	57926
#	63122
#	70699
#	84223
#	87350
#	97253
#	108169
#	115381
#	120109
#	124293
#	129393
#	132208
#	135876
#	143054
#	156933
#	175120
#	184533
#	188911
#	203316
#	210222
#	219687
#	223783
#	231797
# Disc length: 3344 seconds
#
# Revision: 1
# Processed by: cddbd v1.4PL0 Copyright (c) Steve Scherf et al.
# Submitted via: CDCOPY 4.744
#
DISCID=760d0e1d
DTITLE=Lutz Ulbrich - Kurzmusiken [CD2)
DYEAR=1900
DGENRE=
TTITLE0=Moebit
TTITLE1=Mystisch
TTITLE2=Passant
TTITLE3=Astral
TTITLE4=Wassergeist
TTITLE5=Wüstensand
TTITLE6=Kaukasus
TTITLE7=Taucher
TTITLE8=Geliebte
TTITLE9=Hummeln
TTITLE10=Rote Reise
TTITLE11=Verkehr
TTITLE12=Echo-Groove
TTITLE13=Geständnis
TTITLE14=Passe
TTITLE15=Etüden
TTITLE16=Untiefe
TTITLE17=Umbau
TTITLE18=Oriental Cafe
TTITLE19=Neumann
TTITLE20=Hauch
TTITLE21=Abenteuer
TTITLE22=Ventilator
TTITLE23=Facio
TTITLE24=Zombies
TTITLE25=Küche
TTITLE26=Percussion-Move
TTITLE27=Bodensee
TTITLE28=Bow-Job
EXTD=
EXTT0=
EXTT1=
EXTT2=
EXTT3=
EXTT4=
EXTT5=
EXTT6=
EXTT7=
EXTT8=
EXTT9=
EXTT10=
EXTT11=
EXTT12=
EXTT13=
EXTT14=
EXTT15=
EXTT16=
EXTT17=
EXTT18=
EXTT19=
EXTT20=
EXTT21=
EXTT22=
EXTT23=
EXTT24=
EXTT25=
EXTT26=
EXTT27=
EXTT28=
PLAYORDER=
